<?xml version="1.0" encoding="utf-8"?>
<!-- Generator: Adobe Illustrator 19.2.1, SVG Export Plug-In . SVG Version: 6.00 Build 0)  -->
<svg version="1.1" id="Layer_1" xmlns="http://www.w3.org/2000/svg" xmlns:xlink="http://www.w3.org/1999/xlink" x="0px" y="0px"
	 viewBox="0 0 492 423" style="enable-background:new 0 0 492 423;" xml:space="preserve">
<g id="movie-hero">
	<path style="fill:#FFFFFF;" d="M210.4,20.6v-2.2v-1h-17v6h-1l-5-6h-2.9l-11,10l-11-10h-3.1v13c-0.2-0.2-8.2-8.2-8.5-8.5
		c-2.5-2.7-6-4.5-10-4.5c-5.9,0-10.9,3.8-12.7,9.1c-0.1-0.1-5.1-5.2-5.1-5.2c-2.4-2.4-5.8-3.9-9.5-3.9c-7.5,0-13.5,6-13.5,13.5
		c0,0.2,0,0.3,0,0.5h-0.6l-11-11v-1v-1l-1-1h-8v5h-1l-4-5h-16v4l-3.5-4h-7.8l-5.8,12.4l-7-7.4h-3l-2.6,5.8L18.5,17.4h-7.8l12.5,27
		l28.9,28l-6.4,5.8L22.8,57.4h-6.4v56l23,24h-21v75l196,197h37.5c7.9,0,15-4.5,18.9-11h0.6l9,11h20l4.5-10h25.5h1l9,10h19.5
		l-17.9-38c0,0,0,0,0.1,0.1l30.2,30.6c4.2,4.6,10.3,7.4,17,7.4c10.3,0,19-6.8,22-16.1h0.1l15,16h47v-16l-14-14h10v-1v-16v-1l-12-11
		h16v-16l-24-24h18v-12l-11-11h9v-12l-9-9h11v-12l-26-26v-5.3c0,0,0,0,0.1,0l13.7,13.7c2.5,2.7,6,4.5,10,4.5c7.5,0,13.5-6,13.5-13.5
		c0-4-1.7-7.6-4.5-10L278.2,21.9c-2.5-2.7-6-4.5-10-4.5c-4.7,0-8.8,2.4-11.2,6l-5.7-6h-21v7l6,6h1v1v13l13,12v1h-1L210.4,20.6z
		 M446.3,228c0.3,0.3,0.6,0.7,1,1c0.3,0.3,0.6,0.7,1,1c0.3,0.3,0.6,0.7,1,1c0.3,0.3,0.6,0.7,1,1 M58.4,22.4L58.4,22.4v-0.1V22.4z"/>
	<g>
		<path style="fill:#D54D1D;" d="M32.8,34.8l-4.5,9.6h-5.1l-12.5-27h7.8l7.6,16.5l5.1-11.2h3l5.1,11.2l7.7-16.5h7.8l-12.5,27h-5.1
			L32.8,34.8z"/>
		<path style="fill:#D54D1D;" d="M58,17.4h16.8v5.9h-9.7v4.4h8.6v6h-8.6v5h9.7v5.8H58V17.4z"/>
		<path style="fill:#D54D1D;" d="M79.8,17.4h7.1v19.9h9.7v7.1H79.8V17.4z"/>
		<path style="fill:#D54D1D;" d="M118,26.3c-1.1-1.1-2.7-1.8-4.5-1.8c-3.7,0-6.3,2.7-6.3,6.3c0,3.7,2.7,6.3,6.3,6.3
			c1.8,0,3.4-0.6,4.5-1.8l5,5c-2.4,2.4-5.8,4-9.6,4c-7.5,0-13.5-6-13.5-13.5c0-7.5,6-13.5,13.5-13.5c3.7,0,7.1,1.5,9.5,3.9L118,26.3
			z"/>
		<path style="fill:#D54D1D;" d="M140.8,17.4c7.5,0,13.5,6.1,13.5,13.5s-6,13.5-13.5,13.5c-7.5,0-13.5-6-13.5-13.5
			S133.4,17.4,140.8,17.4z M140.8,24.5c-3.5,0-6.4,2.9-6.4,6.4c0,3.5,2.9,6.4,6.4,6.4c3.6,0,6.4-2.9,6.4-6.4
			C147.3,27.3,144.4,24.5,140.8,24.5z"/>
		<path style="fill:#D54D1D;" d="M173.5,27.4l11-10h3.2v27h-7.1V30.5l-7.1,6.4l-7.1-6.4v13.8h-7.1v-27h3.2L173.5,27.4z"/>
		<path style="fill:#D54D1D;" d="M193.1,17.4h16.8v5.9h-9.7v4.4h8.6v6h-8.6v5h9.7v5.8h-16.8V17.4z"/>
		<path style="fill:#D54D1D;" d="M230.6,17.4h21.3v7.1h-7.2v20h-7.1v-20h-7V17.4z"/>
		<path style="fill:#D54D1D;" d="M268.3,17.4c7.5,0,13.5,6.1,13.5,13.5s-6,13.5-13.5,13.5c-7.5,0-13.5-6-13.5-13.5
			S260.8,17.4,268.3,17.4z M268.3,24.5c-3.5,0-6.4,2.9-6.4,6.4c0,3.5,2.9,6.4,6.4,6.4c3.6,0,6.4-2.9,6.4-6.4
			C274.7,27.3,271.8,24.5,268.3,24.5z"/>
		<path style="fill:#D54D1D;" d="M45.7,78l22.9-20.8h6.7v56.2H60.4V84.5L45.7,98L30.9,84.6v28.8H16.1V57.2h6.7L45.7,78z"/>
		<path style="fill:#D54D1D;" d="M113.5,57.2c15.5,0,28.1,12.7,28.1,28.2s-12.6,28-28.1,28s-28-12.5-28-28S98,57.2,113.5,57.2z
			 M113.5,71.9c-7.3,0-13.3,6-13.3,13.4c0,7.4,6,13.4,13.3,13.4c7.4,0,13.4-6.1,13.4-13.4C126.9,77.9,120.9,71.9,113.5,71.9z"/>
		<path style="fill:#D54D1D;" d="M203.1,57.1L177,113.4h-6.7L144,57.1h14.8l14.8,32l14.8-32H203.1z"/>
		<path style="fill:#D54D1D;" d="M209.5,57.2h14.8v56.2h-14.8V57.2z"/>
		<path style="fill:#D54D1D;" d="M235.6,57.2h34.9v12.2h-20.2v9.1h17.8V91h-17.8v10.3h20.2v12.1h-34.9V57.2z"/>
		<path style="fill:#D54D1D;" d="M18,212.4v-75h33.1c12,0,22.2,10.3,22.2,22.3c0,5.1-1.9,9.8-4.8,13.5c5.1,4.1,8.5,10.4,8.5,17.2
			c0,11.9-10.1,22-22,22H18z M47.2,166.7c3.6,0,6.5-2.9,6.5-6.5s-2.9-6.5-6.5-6.5h-9.5v13H47.2z M50.9,196.2c3.6,0,6.5-2.9,6.5-6.5
			c0-3.6-3.1-6.5-6.5-6.5H37.7v13H50.9z"/>
		<path style="fill:#D54D1D;" d="M83.8,212.4l35-75h8.9l35.3,75h-19.7l-4.6-9.8H108l-4.5,9.8H83.8z M115.7,186H131l-7.6-16.5
			L115.7,186z"/>
		<path style="fill:#D54D1D;" d="M198.1,160.4c0-3.1-2.6-5.7-5.7-5.7s-5.6,2.6-5.6,5.7c0,3.1,2.5,5.6,5.6,5.6
			c7.3,0,13.9,3.5,18.1,8.9c3.2,4,5,9,5,14.5c0,12.8-10.3,23-23.1,23s-23.1-10.1-23.1-23.3h17.5c0,3.2,2.5,5.7,5.6,5.7
			s5.7-2.5,5.7-5.6c0-3.1-2.6-5.7-5.7-5.7c-12.8,0-23-10.2-23-23s10.2-23.1,23-23.1s23.1,10.2,23.1,23H198.1z"/>
		<path style="fill:#D54D1D;" d="M229.5,137.4h46.6v16.3h-26.9v12.2H273v16.6h-23.8v13.8h26.9v16.1h-46.6V137.4z"/>
	</g>
	<g>
		<path style="fill:#1E4564;" d="M295.4,242.4v0.4h-6v15.3H289v-15.3h-6v-0.4H295.4z"/>
		<path style="fill:#1E4564;" d="M311.7,250.3h-12.5v7.9h-0.4v-15.7h0.4v7.5h12.5v-7.5h0.4v15.7h-0.4V250.3z"/>
		<path style="fill:#1E4564;" d="M316,242.4h9.8v0.4h-9.4v7.1h8.8v0.4h-8.8v7.4h9.4v0.4H316V242.4z"/>
		<path style="fill:#1E4564;" d="M283.9,267.6h5.9c4.3,0,7.9,3.5,7.9,7.9c0,4.3-3.5,7.9-7.9,7.9h-5.9V267.6z M289.8,268h-5.4v14.9
			h5.4c4.1,0,7.5-3.3,7.5-7.5C297.2,271.3,293.9,268,289.8,268z"/>
		<path style="fill:#1E4564;" d="M299.2,283.3l7.3-15.7h0.5l7.3,15.7h-0.5l-2.4-5.1H302l-2.4,5.1H299.2z M302.2,277.9h9.1l-4.6-9.8
			L302.2,277.9z"/>
		<path style="fill:#1E4564;" d="M327.8,267.6v0.4h-6v15.3h-0.4V268h-6v-0.4H327.8z"/>
		<path style="fill:#1E4564;" d="M328.5,283.3l7.3-15.7h0.5l7.3,15.7h-0.5l-2.4-5.1h-9.5l-2.4,5.1H328.5z M331.5,277.9h9.1l-4.6-9.8
			L331.5,277.9z"/>
		<path style="fill:#1E4564;" d="M357.7,271.4c0,1.6-1,3-2.4,3.5c1.8,0.5,3.2,2.1,3.2,4.1c0,2.4-1.9,4.3-4.3,4.3h-8.2v-15.7h7.8
			C356,267.6,357.7,269.3,357.7,271.4z M353.9,274.8c1.9,0,3.4-1.5,3.4-3.4s-1.5-3.4-3.4-3.4h-7.3v6.8H353.9z M346.6,275.2v7.7h7.7
			c2.1,0,3.8-1.7,3.8-3.8c0-2.1-1.7-3.8-3.8-3.8H346.6z"/>
		<path style="fill:#1E4564;" d="M359.8,283.3l7.3-15.7h0.5l7.3,15.7h-0.5l-2.4-5.1h-9.5l-2.4,5.1H359.8z M362.8,277.9h9.1l-4.6-9.8
			L362.8,277.9z"/>
		<path style="fill:#1E4564;" d="M384.4,271.7c0-2-1.6-3.6-3.6-3.6s-3.6,1.6-3.6,3.6s1.6,3.6,3.6,3.6c2.2,0,4,1.8,4,4s-1.8,4-4,4
			s-4-1.8-4-4.1h0.4c0,2,1.6,3.7,3.6,3.7s3.6-1.6,3.6-3.6s-1.6-3.7-3.6-3.7c-2.2,0-4-1.8-4-4s1.8-4,4-4s4,1.8,4,4.1H384.4z"/>
		<path style="fill:#1E4564;" d="M388.5,267.6h9.8v0.4h-9.4v7.1h8.8v0.4h-8.8v7.4h9.4v0.4h-9.8V267.6z"/>
		<path style="fill:#1E4564;" d="M283.9,292.8h9.8v0.4h-9.4v7.1h8.8v0.4h-8.8v7.9h-0.4V292.8z"/>
		<path style="fill:#1E4564;" d="M304.2,292.8c4.4,0,7.9,3.5,7.9,7.9s-3.5,7.9-7.9,7.9s-7.9-3.5-7.9-7.9S299.9,292.8,304.2,292.8z
			 M304.2,308.2c4.2,0,7.5-3.3,7.5-7.5c0-4.2-3.3-7.5-7.5-7.5s-7.5,3.3-7.5,7.5C296.7,304.8,300.1,308.2,304.2,308.2z"/>
		<path style="fill:#1E4564;" d="M320.4,302.1h-4.5v6.4h-0.4v-15.7h5.3c2.6,0,4.7,2.1,4.7,4.7c0,2.5-2.1,4.6-4.6,4.6l3.7,6.4h-0.5
			L320.4,302.1z M320.8,293.2h-4.9v8.5h4.9c2.3,0,4.2-1.9,4.2-4.2C325.1,295.1,323.2,293.2,320.8,293.2z"/>
		<path style="fill:#1E4564;" d="M337.6,308.5l7.3-15.7h0.5l7.3,15.7h-0.5l-2.4-5.1h-9.5l-2.4,5.1H337.6z M340.6,303.1h9.1l-4.6-9.8
			L340.6,303.1z"/>
		<path style="fill:#1E4564;" d="M355.6,308.2h9.4v0.4h-9.8v-15.7h0.4V308.2z"/>
		<path style="fill:#1E4564;" d="M369,308.2h9.4v0.4h-9.8v-15.7h0.4V308.2z"/>
		<path style="fill:#1E4564;" d="M287.7,327.9l-5.8-9.9h0.5l5.5,9.5l5.5-9.5h0.5l-5.8,9.9v5.8h-0.4V327.9z"/>
		<path style="fill:#1E4564;" d="M304,318c4.4,0,7.9,3.5,7.9,7.9s-3.5,7.9-7.9,7.9s-7.9-3.5-7.9-7.9S299.7,318,304,318z M304,333.4
			c4.2,0,7.5-3.3,7.5-7.5c0-4.2-3.3-7.5-7.5-7.5s-7.5,3.3-7.5,7.5C296.6,330,299.9,333.4,304,333.4z"/>
		<path style="fill:#1E4564;" d="M314.7,318h0.4v9.5c0,3.2,2.6,5.8,5.8,5.8c3.2,0,5.8-2.6,5.8-5.8V318h0.4v9.5
			c0,3.4-2.8,6.2-6.2,6.2s-6.2-2.8-6.2-6.2V318z"/>
		<path style="fill:#1E4564;" d="M335.8,327.3h-4.5v6.4h-0.4V318h5.3c2.6,0,4.7,2.1,4.7,4.7c0,2.5-2.1,4.6-4.6,4.6l3.7,6.4h-0.5
			L335.8,327.3z M336.2,318.4h-4.9v8.5h4.9c2.3,0,4.2-1.9,4.2-4.2C340.4,320.3,338.6,318.4,336.2,318.4z"/>
		<path style="fill:#1E4564;" d="M371,318.4l-7.9,7.9l-7.9-7.9v15.3h-0.4V318h0.6l7.7,7.7l7.7-7.7h0.6v15.7H371V318.4z"/>
		<path style="fill:#1E4564;" d="M382.3,318c4.4,0,7.9,3.5,7.9,7.9s-3.5,7.9-7.9,7.9s-7.9-3.5-7.9-7.9S377.9,318,382.3,318z
			 M382.3,333.4c4.2,0,7.5-3.3,7.5-7.5c0-4.2-3.3-7.5-7.5-7.5s-7.5,3.3-7.5,7.5C374.8,330,378.1,333.4,382.3,333.4z"/>
		<path style="fill:#1E4564;" d="M406.6,318l-7.3,15.7h-0.5l-7.4-15.7h0.5l7.2,15.3l7.1-15.3H406.6z"/>
		<path style="fill:#1E4564;" d="M410.2,333.7V318h0.4v15.7H410.2z"/>
		<path style="fill:#1E4564;" d="M415.6,318h9.8v0.4H416v7.1h8.8v0.4H416v7.4h9.4v0.4h-9.8V318z"/>
		<path style="fill:#1E4564;" d="M284.3,343.6v15.3h-0.4v-15.7h0.7l12.2,15.3v-15.3h0.4v15.7h-0.7L284.3,343.6z"/>
		<path style="fill:#1E4564;" d="M300.9,343.2h9.8v0.4h-9.4v7.1h8.8v0.4h-8.8v7.4h9.4v0.4h-9.8V343.2z"/>
		<path style="fill:#1E4564;" d="M314.2,343.2h9.8v0.4h-9.4v7.1h8.8v0.4h-8.8v7.4h9.4v0.4h-9.8V343.2z"/>
		<path style="fill:#1E4564;" d="M327.6,343.2h5.9c4.3,0,7.9,3.5,7.9,7.9c0,4.3-3.5,7.9-7.9,7.9h-5.9V343.2z M333.4,343.6H328v14.9
			h5.4c4.1,0,7.5-3.3,7.5-7.5C340.9,346.9,337.5,343.6,333.4,343.6z"/>
		<path style="fill:#1E4564;" d="M351.6,347.3c0-2-1.6-3.6-3.6-3.6s-3.6,1.6-3.6,3.6s1.6,3.6,3.6,3.6c2.2,0,4,1.8,4,4s-1.8,4-4,4
			s-4-1.8-4-4.1h0.4c0,2,1.6,3.7,3.6,3.7s3.6-1.6,3.6-3.6s-1.6-3.7-3.6-3.7c-2.2,0-4-1.8-4-4s1.8-4,4-4s4,1.8,4,4.1H351.6z"/>
	</g>
</g>
</svg>
